<svg width="24" height="24" viewBox="0 0 24 24" fill="none" xmlns="http://www.w3.org/2000/svg">
<path d="M17.8944 11.0103L17.2844 6.51027C17.1673 5.80222 16.8002 5.15964 16.2497 4.69911C15.6993 4.23859 15.002 3.99064 14.2844 4.00027H12.0144V6.01027H14.3244C14.5598 6.00599 14.7891 6.08488 14.972 6.23304C15.1549 6.38121 15.2797 6.58915 15.3244 6.82027L15.5944 9.01027H10.0144V7.01027H5.01441V9.01027H7.01441V11.0103H6.51441C5.69469 11.0076 4.88983 11.229 4.18671 11.6504C3.4836 12.0718 2.90894 12.6772 2.52478 13.4013C2.14061 14.1254 1.96154 14.9407 2.00689 15.7592C2.05224 16.5777 2.32029 17.3682 2.78211 18.0455C3.24392 18.7227 3.88195 19.2609 4.62731 19.6021C5.37268 19.9432 6.19707 20.0743 7.01147 19.9811C7.82588 19.8879 8.59937 19.5741 9.24843 19.0734C9.8975 18.5728 10.3975 17.9043 10.6944 17.1403C10.838 17.196 10.985 17.2427 11.1344 17.2803C11.2676 17.2902 11.4013 17.2902 11.5344 17.2803C12.1426 17.2771 12.7289 17.0532 13.1844 16.6503C13.3978 17.4441 13.825 18.1641 14.4194 18.7318C15.0139 19.2995 15.7528 19.6931 16.5556 19.8698C17.3584 20.0464 18.1942 19.9993 18.9721 19.7335C19.7499 19.4678 20.4399 18.9936 20.9668 18.3627C21.4937 17.7318 21.8372 16.9683 21.9601 16.1556C22.0829 15.3428 21.9802 14.5119 21.6633 13.7535C21.3464 12.9951 20.8273 12.3382 20.1628 11.8545C19.4982 11.3707 18.7135 11.0787 17.8944 11.0103ZM6.51441 18.0103C6.07813 18.0119 5.64903 17.8993 5.26975 17.6837C4.89046 17.4681 4.57419 17.1571 4.35238 16.7814C4.13056 16.4057 4.01091 15.9785 4.00533 15.5423C3.99974 15.1061 4.10841 14.676 4.32054 14.2947C4.53267 13.9135 4.84087 13.5944 5.21451 13.3692C5.58815 13.144 6.01423 13.0204 6.4504 13.0109C6.88657 13.0013 7.31764 13.1061 7.70078 13.3147C8.08393 13.5234 8.40579 13.8287 8.63441 14.2003L9.01441 15.1103C9.02476 15.2434 9.02476 15.3771 9.01441 15.5103C9.01441 16.1733 8.75101 16.8092 8.28217 17.278C7.81333 17.7469 7.17745 18.0103 6.51441 18.0103ZM11.9444 15.1003C11.8913 15.178 11.8166 15.2383 11.7295 15.2739C11.6423 15.3095 11.5467 15.3186 11.4544 15.3003C11.3578 15.2845 11.2677 15.2412 11.195 15.1756C11.1223 15.11 11.07 15.0248 11.0444 14.9303L10.9244 14.6203C10.8332 14.2006 10.6816 13.7964 10.4744 13.4203L9.57441 11.0103H14.7844L11.9444 15.1003ZM17.5144 18.0103C17.02 18.0103 16.5366 17.8636 16.1255 17.5889C15.7144 17.3142 15.3939 16.9238 15.2047 16.467C15.0155 16.0102 14.966 15.5075 15.0624 15.0225C15.1589 14.5376 15.397 14.0921 15.7466 13.7425C16.0963 13.3929 16.5417 13.1548 17.0267 13.0583C17.5116 12.9618 18.0143 13.0114 18.4711 13.2006C18.9279 13.3898 19.3184 13.7102 19.5931 14.1213C19.8678 14.5325 20.0144 15.0158 20.0144 15.5103C20.0144 16.1733 19.751 16.8092 19.2822 17.278C18.8133 17.7469 18.1774 18.0103 17.5144 18.0103Z" fill="#00000099"/>
</svg>
