<svg width="24" height="24" viewBox="0 0 24 24" fill="none" xmlns="http://www.w3.org/2000/svg">
<path d="M16.8202 4H13.0002V6H15.1802L15.9002 8.6L11.2802 12.29L9.54017 9H2.00017V11H2.64017C2.19311 11.9355 1.9738 12.9635 2.00017 14V16H4.00017C4.00017 17.0609 4.4216 18.0783 5.17175 18.8284C5.92189 19.5786 6.93931 20 8.00017 20C9.06104 20 10.0785 19.5786 10.8286 18.8284C11.5787 18.0783 12.0002 17.0609 12.0002 16V14.28L18.1002 9.4L16.8202 4ZM8.00017 18C7.46974 18 6.96103 17.7893 6.58596 17.4142C6.21089 17.0391 6.00017 16.5304 6.00017 16H10.0002C10.0002 16.5304 9.78946 17.0391 9.41439 17.4142C9.03931 17.7893 8.53061 18 8.00017 18ZM18.0002 12C17.209 12 16.4357 12.2346 15.7779 12.6741C15.1201 13.1136 14.6074 13.7384 14.3047 14.4693C14.0019 15.2002 13.9227 16.0044 14.077 16.7804C14.2314 17.5563 14.6123 18.269 15.1717 18.8284C15.7312 19.3878 16.4439 19.7688 17.2198 19.9231C17.9957 20.0775 18.8 19.9983 19.5309 19.6955C20.2618 19.3928 20.8865 18.8801 21.3261 18.2223C21.7656 17.5645 22.0002 16.7911 22.0002 16C22.0002 14.9391 21.5787 13.9217 20.8286 13.1716C20.0785 12.4214 19.061 12 18.0002 12ZM18.0002 18C17.6046 18 17.2179 17.8827 16.889 17.6629C16.5601 17.4432 16.3038 17.1308 16.1524 16.7654C16.001 16.3999 15.9614 15.9978 16.0386 15.6098C16.1158 15.2219 16.3063 14.8655 16.586 14.5858C16.8657 14.3061 17.222 14.1156 17.61 14.0384C17.998 13.9613 18.4001 14.0009 18.7655 14.1522C19.131 14.3036 19.4433 14.56 19.6631 14.8889C19.8829 15.2178 20.0002 15.6044 20.0002 16C20.0002 16.5304 19.7895 17.0391 19.4144 17.4142C19.0393 17.7893 18.5306 18 18.0002 18Z" fill="#00000099"/>
</svg>
