<svg width="24" height="24" viewBox="0 0 24 24" fill="none" xmlns="http://www.w3.org/2000/svg">
<path fill-rule="evenodd" clip-rule="evenodd" d="M4 5C2.89543 5 2 5.89543 2 7V18H2.05001C2.28164 19.1411 3.29052 20 4.5 20C5.70948 20 6.71836 19.1411 6.94999 18H7.05001C7.28164 19.1411 8.29052 20 9.5 20C10.7095 20 11.7184 19.1411 11.95 18H15.05C15.2816 19.1411 16.2905 20 17.5 20C18.7095 20 19.7184 19.1411 19.95 18H22V14C22 12.8954 21.1046 12 20 12V10C20 8.89543 19.1046 8 18 8H16V7C16 5.89543 15.1046 5 14 5H4ZM11.5002 16H14V7H4V15.05C4.16156 15.0172 4.32877 15 4.5 15C5.31791 15 6.04408 15.3928 6.50018 16H7.49982C7.95592 15.3928 8.68209 15 9.5 15C10.3179 15 11.0441 15.3928 11.5002 16ZM18 10H16V12H18V10ZM4.5 18.5C5.05228 18.5 5.5 18.0523 5.5 17.5C5.5 16.9477 5.05228 16.5 4.5 16.5C3.94772 16.5 3.5 16.9477 3.5 17.5C3.5 18.0523 3.94772 18.5 4.5 18.5ZM10.5 17.5C10.5 18.0523 10.0523 18.5 9.5 18.5C8.94772 18.5 8.5 18.0523 8.5 17.5C8.5 16.9477 8.94772 16.5 9.5 16.5C10.0523 16.5 10.5 16.9477 10.5 17.5ZM18.5 17.5C18.5 18.0523 18.0523 18.5 17.5 18.5C16.9477 18.5 16.5 18.0523 16.5 17.5C16.5 16.9477 16.9477 16.5 17.5 16.5C18.0523 16.5 18.5 16.9477 18.5 17.5Z" fill="#00000099"/>
</svg>
